<?xml version="1.0" encoding="utf-8"?>
<!-- Generator: Adobe Illustrator 16.0.0, SVG Export Plug-In . SVG Version: 6.00 Build 0)  -->
<!DOCTYPE svg PUBLIC "-//W3C//DTD SVG 1.1//EN" "http://www.w3.org/Graphics/SVG/1.1/DTD/svg11.dtd">
<svg version="1.1" id="Layer_1" xmlns="http://www.w3.org/2000/svg" xmlns:xlink="http://www.w3.org/1999/xlink" x="0px" y="0px"
	 width="64px" height="64px" viewBox="268 137 64 64" enable-background="new 268 137 64 64" xml:space="preserve">
<g>
	<g>
		<path fill="#FFFFFF" d="M326.918,187.313h-3.492v-25.58H332l-32-23.469l-32,23.469h8.573v25.58h-3.492
			c-2.024,0-3.67,1.646-3.67,3.671v8.753h61.179v-8.753C330.589,188.959,328.942,187.313,326.918,187.313z M275.474,159.285
			L300,141.298l24.526,17.987H275.474z M320.979,161.732v25.58h-6.435v-25.58H320.979z M312.098,161.732v25.58h-6.434v-25.58
			H312.098z M303.217,161.732v25.58h-6.434v-25.58H303.217z M294.336,161.732v25.58h-6.435v-25.58H294.336z M285.454,161.732v25.58
			h-6.434v-25.58H285.454z M328.142,197.289h-56.284v-6.306c0-0.675,0.549-1.224,1.223-1.224h53.837
			c0.675,0,1.224,0.549,1.224,1.224V197.289z"/>
	</g>
</g>
<g>
	<g>
		<path fill="#FFFFFF" d="M300,146.981c-2.755,0-4.997,2.226-4.997,4.961c0,2.735,2.242,4.961,4.997,4.961
			c2.755,0,4.997-2.226,4.997-4.961C304.996,149.208,302.755,146.981,300,146.981z M300,154.457c-1.406,0-2.549-1.128-2.549-2.514
			c0-1.386,1.144-2.514,2.549-2.514s2.549,1.128,2.549,2.514C302.549,153.329,301.405,154.457,300,154.457z"/>
	</g>
</g>
</svg>
