<?xml version="1.0" encoding="utf-8"?>
<!-- Generator: Adobe Illustrator 16.0.0, SVG Export Plug-In . SVG Version: 6.00 Build 0)  -->
<!DOCTYPE svg PUBLIC "-//W3C//DTD SVG 1.1//EN" "http://www.w3.org/Graphics/SVG/1.1/DTD/svg11.dtd">
<svg version="1.1" id="Layer_1" xmlns="http://www.w3.org/2000/svg" xmlns:xlink="http://www.w3.org/1999/xlink" x="0px" y="0px"
	 width="64px" height="64px" viewBox="268 137 64 64" enable-background="new 268 137 64 64" xml:space="preserve">
<g>
	<g>
		<path fill="#FFFFFF" d="M327.215,144.35h-54.483c-2.592,0-4.765,2.042-4.765,4.765v39.77c0,2.592,2.042,4.765,4.765,4.765h54.47
			c2.592,0,4.765-2.173,4.765-4.896v-39.639C331.98,146.537,329.938,144.35,327.215,144.35z M329.388,188.74
			c0,1.23-0.955,2.174-2.173,2.174h-54.483c-1.23,0-2.173-0.956-2.173-2.174v-39.625c0-1.23,0.956-2.173,2.173-2.173h54.47
			c1.23,0,2.173,0.956,2.173,2.173v39.625H329.388z"/>
		<path fill="#FFFFFF" d="M289.763,153.069h-14.164v14.164h14.164V153.069z M287.171,164.641h-8.849v-8.849h8.849V164.641z"/>
		<rect x="276.96" y="174.04" fill="#FFFFFF" width="28.185" height="2.723"/>
		<rect x="276.96" y="182.614" fill="#FFFFFF" width="28.185" height="2.723"/>
	</g>
</g>
</svg>
