<?xml version="1.0" encoding="utf-8"?>
<!-- Generator: Adobe Illustrator 16.0.0, SVG Export Plug-In . SVG Version: 6.00 Build 0)  -->
<!DOCTYPE svg PUBLIC "-//W3C//DTD SVG 1.1//EN" "http://www.w3.org/Graphics/SVG/1.1/DTD/svg11.dtd">
<svg version="1.1" id="Layer_1" xmlns="http://www.w3.org/2000/svg" xmlns:xlink="http://www.w3.org/1999/xlink" x="0px" y="0px"
	 width="32px" height="32px" viewBox="0 0 32 32" enable-background="new 0 0 32 32" xml:space="preserve">
<path fill-rule="evenodd" clip-rule="evenodd" fill="#FFFFFF" stroke="#0089CF" stroke-miterlimit="10" d="M31.438,25.648
	c0,3.197-2.592,5.789-5.789,5.789H6.352c-3.197,0-5.789-2.592-5.789-5.789V6.352c0-3.197,2.592-5.789,5.789-5.789h19.297
	c3.197,0,5.789,2.592,5.789,5.789V25.648z"/>
<path fill-rule="evenodd" clip-rule="evenodd" fill="#0089CF" d="M26.934,7.293C28.861,9.668,30,12.735,30,16
	c0,3.314-1.139,6.332-3.066,8.707v-0.643c1.682-2.275,2.671-5.045,2.671-8.063c0-3.018-0.989-5.788-2.671-8.063V7.293L26.934,7.293z
	 M26.934,20.897L26.934,20.897l0.147,0.099l0.445-0.247l-0.593-0.247V20.897L26.934,20.897z M26.934,19.71L26.934,19.71
	c0.396,0.049,0.939-0.346,0.988-0.939l-0.346,0.049c-0.149,0.347-0.347,0.593-0.643,0.495V19.71L26.934,19.71z M26.934,18.473
	L26.934,18.473l0.049-0.049l0.099,0.148l0.346-0.296c-0.493-0.743-0.444-1.385-0.147-1.434c0.346-0.051,0.594,0.494,0.543,1.038
	l0.396-0.248c-0.147-0.643-0.494-1.039-0.989-1.039c-0.099,0-0.197,0.049-0.296,0.099V18.473L26.934,18.473z M26.934,16L26.934,16
	h1.138l0.247-0.396h-1.385V16L26.934,16z M26.934,14.368L26.934,14.368h0.742l0.197-0.445l-0.939,0.049V14.368L26.934,14.368z
	 M26.934,13.428L26.934,13.428h0.742l0.197-0.396h-0.939V13.428L26.934,13.428z M24.658,5.018v0.543
	c0.84,0.693,1.632,1.485,2.275,2.375V7.293C26.24,6.453,25.498,5.71,24.658,5.018L24.658,5.018L24.658,5.018z M26.934,24.707v-0.643
	c-0.644,0.89-1.436,1.683-2.275,2.424v0.495C25.498,26.339,26.24,25.548,26.934,24.707L26.934,24.707L26.934,24.707z M26.934,13.032
	H26.29l-0.248,0.396h0.892V13.032L26.934,13.032L26.934,13.032z M26.934,13.972H26.29l-0.297,0.396h0.94V13.972L26.934,13.972
	L26.934,13.972z M26.934,15.604h-0.546c0-0.099,0-0.248,0-0.396h-0.295c0.049,0.297,0.049,0.544,0.049,0.792
	c0.05,1.979-0.495,3.809-1.483,5.392v0.396c0.099-0.149,0.197-0.297,0.296-0.495c0.297-0.099,0.692-0.148,0.891,0.05
	c0.593,0.544,0.099,1.138-0.198,1.188c-0.396,0.099-0.346-0.347,0.05-0.643c-0.099-0.099-0.149-0.198-0.198-0.297
	c-0.594,0.396-0.643,1.039-0.049,1.287c0.396,0.197,0.988-0.199,1.088-0.693c0.246-1.088-0.742-1.385-1.385-1.236
	c0.148-0.198,0.247-0.445,0.346-0.643l1.436,0.593v-0.396l-1.287-0.544c0.297-0.792,0.545-1.583,0.644-2.425h0.445l0.1,0.396
	c-0.348,0.445-0.545,0.939-0.348,1.385c0.099,0.248,0.248,0.347,0.446,0.396v-0.396h-0.051c-0.246-0.148-0.197-0.445,0.051-0.841
	v-1.78c-0.15,0.098-0.248,0.247-0.248,0.445H26.34c0.048-0.347,0.098-0.742,0.098-1.138h0.496V15.604L26.934,15.604L26.934,15.604z
	 M24.658,25.548v-0.346h0.246v0.346H24.658L24.658,25.548L24.658,25.548z M24.658,23.816L24.658,23.816v-0.593
	c0.147,0,0.296,0.099,0.296,0.296C24.954,23.667,24.806,23.816,24.658,23.816L24.658,23.816z M24.658,19.018v-1.682
	c0.048-0.396,0.099-0.891,0.099-1.336s-0.051-0.891-0.099-1.335v-1.682c0.346,0.94,0.494,1.979,0.494,3.018
	S25.004,18.078,24.658,19.018L24.658,19.018L24.658,19.018z M24.658,12.24L24.658,12.24v-0.396c0.048,0.297,0.346,0.396,0.889,0.396
	v0.198C25.152,12.488,24.855,12.389,24.658,12.24L24.658,12.24z M24.658,11.696L24.658,11.696v-1.089l1.087-1.88l-1.087,0.198V8.679
	l1.979-0.347l-1.781,2.87C24.757,11.399,24.658,11.548,24.658,11.696L24.658,11.696z M24.658,6.897V6.403
	c0.099,0,0.197-0.05,0.296-0.099L24.658,6.897L24.658,6.897L24.658,6.897z M21.541,3.138L21.541,3.138
	c1.087,0.494,2.177,1.137,3.117,1.88v0.543c-0.94-0.791-2.03-1.434-3.117-1.978V3.138L21.541,3.138z M24.658,26.982L24.658,26.982
	c-0.94,0.742-2.03,1.385-3.117,1.88v-0.445c1.087-0.495,2.177-1.188,3.117-1.929V26.982L24.658,26.982z M24.658,6.403L24.658,6.403
	v0.494l-0.94,1.93l0.94-0.148v0.247l-1.635,0.247l1.09-2.325c-0.742,0.396-1.731,0.791-2.572,0.841V7.442
	C22.53,7.392,23.667,6.848,24.658,6.403L24.658,6.403z M24.658,10.607l-0.248,0.396c-0.248,0.445-0.148,0.94,0.248,1.237v-0.396
	c0-0.05,0-0.099,0-0.148V10.607L24.658,10.607L24.658,10.607z M24.658,12.982L24.658,12.982c-0.595-1.731-1.732-3.216-3.117-4.255
	v0.496c1.633,1.335,2.77,3.265,3.117,5.441V12.982L24.658,12.982z M24.658,17.336L24.658,17.336v1.682
	c-0.595,1.731-1.732,3.215-3.117,4.304v-0.544C23.174,21.441,24.311,19.512,24.658,17.336L24.658,17.336z M24.658,21.392v0.396
	c-0.348,0.544-0.742,1.039-1.188,1.483l0.446,0.595c-0.249,0.197-0.545,0.395-0.792,0.593c-0.247,0.149-0.05,0.545,0.296,0.198
	c0.298-0.297,0.595-0.643,0.94-0.396c0.346,0.198,0.247,0.594-0.05,0.94h0.348v0.346l-0.644,0.099l-0.149,0.346l-0.296-0.049
	l0.148-0.346l-0.544,0.098v-0.197c0.396-0.099,0.691-0.247,0.89-0.544c0.198-0.296-0.099-0.445-0.346-0.148
	c-0.248,0.247-0.841,0.495-1.039,0.346c-0.396-0.346,0-0.939,0.741-1.236l-0.246-0.346c-0.495,0.445-1.039,0.89-1.633,1.236v-0.297
	C22.777,23.717,23.865,22.629,24.658,21.392L24.658,21.392L24.658,21.392z M24.658,23.223L24.658,23.223
	c-0.199,0-0.298,0.099-0.298,0.296c0,0.148,0.099,0.297,0.298,0.297V23.223L24.658,23.223z M21.541,26.092L21.541,26.092
	l0.297,0.643h0.444l-0.741-1.484V26.092L21.541,26.092z M21.541,20.897L21.541,20.897v-0.346h0.793v-8.707h-0.793v-0.396h1.138
	v9.449H21.541L21.541,20.897z M21.541,19.809L21.541,19.809c0.147-0.148,0.246-0.346,0.246-0.544c0-0.198-0.099-0.396-0.246-0.495
	V19.809L21.541,19.809z M21.541,18.622L21.541,18.622c0.049-0.05,0.147-0.198,0.147-0.396c0-0.149-0.049-0.297-0.147-0.445V18.622
	L21.541,18.622z M21.541,16.445L21.541,16.445v-2.869h0.147l0.248,0.495H21.59v2.423L21.541,16.445L21.541,16.445z M21.541,13.279
	L21.541,13.279v-0.643c0.147,0,0.297,0.148,0.297,0.346C21.838,13.131,21.688,13.279,21.541,13.279L21.541,13.279z M20.699,2.841
	v0.396c0.247,0.148,0.545,0.248,0.842,0.347V3.138C21.244,3.039,20.946,2.94,20.699,2.841L20.699,2.841L20.699,2.841z
	 M21.541,28.862v-0.445c-0.297,0.099-0.595,0.248-0.842,0.346v0.446C20.946,29.06,21.244,28.961,21.541,28.862L21.541,28.862
	L21.541,28.862z M21.541,7.442c-0.297,0-0.595,0-0.842-0.099V7.59c0.247,0.1,0.495,0.1,0.842,0.1V7.442L21.541,7.442L21.541,7.442z
	 M21.541,8.728c-0.297-0.247-0.595-0.396-0.842-0.593v0.495c0.298,0.198,0.545,0.396,0.842,0.594V8.728L21.541,8.728L21.541,8.728z
	 M21.541,11.449L21.541,11.449v0.396h-0.842v-0.396H21.541L21.541,11.449z M21.541,12.636L21.541,12.636v0.643
	c-0.199,0-0.347-0.148-0.347-0.297C21.194,12.785,21.342,12.636,21.541,12.636L21.541,12.636z M21.541,13.576v2.869l-0.445-0.247
	v-0.692c-0.099,0.099-0.247,0.197-0.396,0.247V15.06l0.149,0.248c0.098-0.049,0.197-0.149,0.247-0.198v-0.247c-0.05,0-0.05,0-0.05,0
	c-0.049-0.099-0.197-0.149-0.347-0.149v-0.296c0.149,0.05,0.298,0.149,0.396,0.296V14.12h-0.396v-0.792
	c0.049,0.099,0.149,0.148,0.247,0.248h0.149c-0.149-0.148-0.297-0.346-0.396-0.495v-0.396c0.247,0.297,0.396,0.643,0.693,0.891
	H21.541L21.541,13.576L21.541,13.576z M21.541,17.782c-0.148-0.1-0.297-0.199-0.595-0.199h-0.247v0.445h0.149
	c0.197,0,0.346,0.049,0.346,0.248c0,0.197-0.148,0.247-0.346,0.247h-0.149v0.396h0.199c0.197,0,0.346,0.1,0.346,0.297
	c0,0.248-0.1,0.396-0.346,0.396h-0.199v0.396h0.1c0.445,0,0.594-0.049,0.742-0.198v-1.039c-0.049-0.05-0.1-0.05-0.148-0.05
	c0.049-0.049,0.1-0.049,0.148-0.099V17.782L21.541,17.782L21.541,17.782z M21.541,20.552h-0.842v0.346h0.842V20.552L21.541,20.552
	L21.541,20.552z M21.541,22.777c-0.297,0.248-0.544,0.446-0.842,0.594v0.495c0.247-0.149,0.545-0.347,0.842-0.544V22.777
	L21.541,22.777L21.541,22.777z M21.541,24.509c-0.297,0.198-0.595,0.346-0.842,0.495v0.297c0.1-0.05,0.199-0.099,0.298-0.149
	l0.247,0.396l-0.545,0.297v0.396l0.693-0.347l0.148,0.198v-0.841l-0.199-0.346c0.051,0,0.1-0.05,0.199-0.099V24.509L21.541,24.509
	L21.541,24.509z M20.502,2.742L20.502,2.742c0.05,0.049,0.098,0.049,0.197,0.099v0.396c-0.1,0-0.147,0-0.197-0.049V2.742
	L20.502,2.742z M20.699,29.209L20.699,29.209c-0.1,0-0.147,0-0.197,0.048v-0.445c0.05,0,0.098-0.049,0.197-0.049V29.209
	L20.699,29.209z M20.699,7.343L20.699,7.343V7.59c-0.1,0-0.147-0.049-0.197-0.049V7.293C20.552,7.293,20.6,7.343,20.699,7.343
	L20.699,7.343z M20.699,8.134L20.699,8.134v0.495C20.65,8.58,20.552,8.53,20.502,8.53V8.035C20.552,8.084,20.6,8.084,20.699,8.134
	L20.699,8.134z M20.699,11.449h-0.197v0.396h0.197V11.449L20.699,11.449L20.699,11.449z M20.699,12.686
	c-0.049-0.049-0.147-0.099-0.197-0.148v0.346c0.05,0.05,0.148,0.099,0.197,0.198V12.686L20.699,12.686L20.699,12.686z
	 M20.699,13.329c-0.1-0.049-0.147-0.099-0.197-0.148v0.396h0.05h-0.05v0.544h0.197V13.329L20.699,13.329L20.699,13.329z
	 M20.699,14.417c-0.049,0-0.147,0-0.197,0v0.347c0.05,0,0.148-0.05,0.197-0.05V14.417L20.699,14.417L20.699,14.417z M20.699,15.06
	l-0.197-0.248v0.544l0.05,0.05h-0.05v0.346c0.05,0,0.148,0,0.197,0V15.06L20.699,15.06L20.699,15.06z M20.699,17.583L20.699,17.583
	v0.445h-0.197v-0.445H20.699L20.699,17.583z M20.699,18.523L20.699,18.523v0.396h-0.197v-0.396H20.699L20.699,18.523z
	 M20.699,19.611L20.699,19.611v0.396h-0.197v-0.396H20.699L20.699,19.611z M20.699,20.552L20.699,20.552v0.346h-0.197v-0.346H20.699
	L20.699,20.552z M20.699,23.371L20.699,23.371v0.495c-0.1,0.049-0.147,0.049-0.197,0.099V23.47
	C20.552,23.47,20.65,23.42,20.699,23.371L20.699,23.371z M20.699,25.004L20.699,25.004v0.297c-0.049,0.049-0.147,0.049-0.197,0.099
	v-0.297C20.552,25.053,20.65,25.053,20.699,25.004L20.699,25.004z M20.699,25.845L20.699,25.845v0.396l-0.1,0.049
	c0.1,0.396,0.051,0.741-0.098,0.989v-1.386L20.699,25.845L20.699,25.845z M20.255,2.692v0.446c0.099,0,0.198,0.049,0.247,0.049
	V2.742C20.453,2.742,20.354,2.692,20.255,2.692L20.255,2.692L20.255,2.692z M20.502,29.257v-0.445
	c-0.049,0.05-0.148,0.05-0.247,0.099v0.396C20.354,29.308,20.453,29.257,20.502,29.257L20.502,29.257L20.502,29.257z M20.502,7.293
	c-0.049-0.05-0.148-0.05-0.247-0.099v0.197c0.099,0.05,0.147,0.1,0.247,0.148V7.293L20.502,7.293L20.502,7.293z M20.502,8.035
	c-0.049-0.049-0.148-0.099-0.247-0.148v0.495c0.099,0.049,0.198,0.099,0.247,0.148V8.035L20.502,8.035L20.502,8.035z M20.502,11.449
	L20.502,11.449v0.396h-0.247v-0.396H20.502L20.502,11.449z M20.502,12.537L20.502,12.537v0.346c-0.049-0.099-0.1-0.148-0.148-0.198
	c-0.05,0-0.05-0.049-0.099-0.049v-0.297c0.049,0,0.049,0.05,0.049,0.05C20.402,12.438,20.453,12.488,20.502,12.537L20.502,12.537z
	 M20.502,13.18L20.502,13.18v0.396l-0.247-0.198v-0.346C20.354,13.081,20.453,13.131,20.502,13.18L20.502,13.18z M20.502,13.576
	L20.502,13.576v0.544h-0.247v-0.544H20.502L20.502,13.576z M20.502,14.417L20.502,14.417v0.347v0.049v0.544l-0.247-0.346v-0.594
	c0.049,0,0.099,0,0.147,0C20.453,14.417,20.453,14.417,20.502,14.417L20.502,14.417z M20.502,15.407L20.502,15.407v0.346
	c-0.1,0-0.148,0-0.247-0.05v-0.296C20.354,15.407,20.402,15.407,20.502,15.407L20.502,15.407z M20.502,17.583h-0.247v0.445h0.247
	V17.583L20.502,17.583L20.502,17.583z M20.502,18.523h-0.247v0.396h0.247V18.523L20.502,18.523L20.502,18.523z M20.502,19.611
	h-0.247v0.396h0.247V19.611L20.502,19.611L20.502,19.611z M20.502,20.552h-0.247v0.346h0.247V20.552L20.502,20.552L20.502,20.552z
	 M20.502,23.47c-0.049,0.049-0.148,0.1-0.247,0.148v0.495c0.099-0.049,0.198-0.099,0.247-0.148V23.47L20.502,23.47L20.502,23.47z
	 M20.502,25.103c-0.049,0-0.148,0.049-0.247,0.099v0.296c0.099-0.049,0.198-0.099,0.247-0.099V25.103L20.502,25.103L20.502,25.103z
	 M20.502,25.894l-0.1,0.05l-0.147-0.346v1.929c0.099-0.049,0.198-0.148,0.247-0.247V25.894L20.502,25.894L20.502,25.894z
	 M19.907,2.594L19.907,2.594c0.1,0,0.249,0.05,0.348,0.099v0.446c-0.099-0.05-0.248-0.099-0.348-0.149V2.594L19.907,2.594z
	 M20.255,29.308L20.255,29.308c-0.099,0.049-0.248,0.099-0.348,0.148v-0.445c0.1-0.049,0.249-0.049,0.348-0.099V29.308
	L20.255,29.308z M20.255,7.195L20.255,7.195v0.197c0,0,0,0,0-0.049V7.145C20.255,7.145,20.255,7.145,20.255,7.195L20.255,7.195z
	 M20.255,7.887L20.255,7.887v0.495c-0.099-0.099-0.248-0.149-0.348-0.198V7.739C20.007,7.788,20.156,7.837,20.255,7.887
	L20.255,7.887z M20.255,11.449h-0.348v0.396h0.348V11.449L20.255,11.449L20.255,11.449z M20.255,12.339
	c-0.099-0.049-0.248-0.099-0.348-0.148v0.346h0.051c0.099,0,0.198,0.05,0.297,0.099V12.339L20.255,12.339L20.255,12.339z
	 M20.255,13.032c0-0.049-0.05-0.049-0.05-0.049c-0.1-0.099-0.198-0.148-0.298-0.148v0.346h0.051l0.297,0.198V13.032L20.255,13.032
	L20.255,13.032z M20.255,13.576h-0.348v0.544h0.348V13.576L20.255,13.576L20.255,13.576z M20.255,14.417
	c-0.149,0-0.248,0.05-0.348,0.149v0.989c0.1,0.05,0.198,0.148,0.348,0.148v-0.296c-0.099,0-0.149-0.05-0.198-0.099
	c-0.099-0.149-0.05-0.297,0.148-0.445l0.05,0.148V14.417L20.255,14.417L20.255,14.417z M20.255,17.583L20.255,17.583v0.445v0.495
	v0.396v0.693v0.396h-0.348v-2.424H20.255L20.255,17.583z M20.255,20.552L20.255,20.552v0.346h-0.348v-0.346H20.255L20.255,20.552z
	 M20.255,23.618L20.255,23.618v0.495c-0.099,0.05-0.248,0.099-0.348,0.198v-0.495C20.007,23.767,20.156,23.717,20.255,23.618
	L20.255,23.618z M20.255,25.202L20.255,25.202v0.296c0,0,0,0-0.05,0l0.05,0.099v1.929c-0.099,0.05-0.248,0.05-0.348,0.05v-0.247
	c0.298,0.049,0.446-0.396,0.249-0.841c-0.1,0-0.198,0.049-0.249,0.049v-0.396c0.051-0.049,0.051-0.049,0.1-0.098l-0.1-0.248V25.35
	C20.007,25.301,20.156,25.251,20.255,25.202L20.255,25.202z M16,2v0.445c1.336,0,2.672,0.199,3.907,0.544V2.594
	C18.672,2.198,17.336,2,16,2L16,2L16,2z M19.907,29.456v-0.445c-1.235,0.396-2.571,0.594-3.907,0.594V30
	C17.336,30,18.672,29.802,19.907,29.456L19.907,29.456L19.907,29.456z M19.907,7.739C18.721,7.145,17.385,6.848,16,6.848v0.396
	c1.385,0,2.721,0.346,3.907,0.94V7.739L19.907,7.739L19.907,7.739z M19.907,11.449L19.907,11.449h-1.187v9.103h-0.594v-0.544h-0.444
	l-0.198-0.297v-1.039c0.149-0.198,0.248-0.099,0.444-0.495l0.099-0.296c0.1-0.049,0.15-0.248,0.15-0.446h-0.396
	c0,0.396-0.347,0.544-0.544,0.544v-0.742c0.147-0.049,0.247-0.049,0.445-0.297l0.147-0.247c0.099-0.05,0.148-0.099,0.197-0.199
	v-0.197h-0.493l-0.05,0.346h-0.545v-0.495c0.248-0.148,0.595-0.297,0.644-0.643c0.051,0,0.247-0.149,0.297-0.149V15.06h-0.396
	l-0.148,0.248c-0.099,0.198-0.545,0.148-0.495,0.148v-0.544c0.248-0.099,0.495-0.247,0.594-0.445l0.248-0.099v-0.396h-0.445
	c0,0.148-0.1,0.297-0.249,0.396c-0.098,0-0.147,0-0.246,0v-0.495c0.246-0.148,0.544-0.248,0.594-0.594l0.247-0.099v-0.297h-0.445
	c0,0.099-0.149,0.248-0.198,0.347h-0.247v-0.396c0.247-0.148,0.396-0.346,0.445-0.643l0.297-0.049v-0.347h-0.446
	c-0.098,0.445-0.296,0.445-0.395,0.396v-0.396c0.247-0.148,0.247-0.198,0.495-0.445c0.197-0.099,0.346-0.543,0.148-0.495h-0.198
	c-0.148,0-0.148,0.248-0.248,0.347c-0.049,0-0.197,0.049-0.296,0.049v-0.445c0.247-0.049,0.544-0.248,0.594-0.545h0.148
	c0-0.049,0-0.148,0.049-0.247c-0.148,0-0.298,0-0.396,0c-0.05,0.198-0.198,0.297-0.347,0.347c-0.198-0.149-0.247-0.149-0.297-0.396
	c0-0.347,0.347-0.644,0.099-1.04l-0.049-0.247c0-0.396-0.149-0.446-0.297-0.594v12.813h3.907v-0.346h-0.89v-8.707h0.89V11.449
	L19.907,11.449z M19.907,12.191L19.907,12.191v0.346h-0.295l-0.198-0.346H19.907L19.907,12.191z M19.907,12.834L19.907,12.834v0.346
	H19.66l-0.246-0.396c0.147,0,0.246,0,0.396,0C19.859,12.785,19.859,12.785,19.907,12.834L19.907,12.834z M19.907,13.576
	L19.907,13.576v0.544H19.66l-0.197-0.544H19.907L19.907,13.576z M19.907,14.566L19.907,14.566v0.989
	c-0.147-0.148-0.247-0.296-0.247-0.495C19.612,14.862,19.71,14.665,19.907,14.566L19.907,14.566z M19.907,17.583H19.81v2.424h0.098
	V17.583L19.907,17.583L19.907,17.583z M19.907,23.816c-1.187,0.594-2.522,0.94-3.907,0.94v0.395c1.385,0,2.721-0.296,3.907-0.84
	V23.816L19.907,23.816L19.907,23.816z M19.907,25.35c-1.235,0.495-2.522,0.792-3.907,0.792v2.028l0.247,0.198v-0.841
	c0.198-0.099,0.347-0.148,0.495-0.247c0.347-0.248,0.94-0.445,1.088-0.099c0.099,0.297-0.445,0.495-0.891,0.396
	c-0.049,0.148-0.099,0.296-0.148,0.396c0.396,0.05,1.039,0.099,1.236-0.346c0.198-0.495,0.05-0.939-0.643-0.939
	c-0.346-0.05-0.742,0.148-1.138,0.345v-0.643c1.287,0,2.474-0.248,3.612-0.693l0.048,0.1V25.35L19.907,25.35L19.907,25.35z
	 M19.907,26.141L19.907,26.141c-0.89,0.396-0.79,1.138-0.247,1.385c0.05,0,0.149,0.05,0.247,0.05v-0.247
	c-0.048,0-0.147-0.05-0.197-0.05c-0.296-0.198-0.247-0.544,0.197-0.743V26.141L19.907,26.141z M16,5.265V4.869l1.188-1.979
	l0.99,3.216c0.246,0.791,0.69,0.841,1.236,0.148l0.147,0.149c-0.643,0.89-1.583,0.643-1.829-0.099L16.939,3.83L16,5.265L16,5.265
	L16,5.265z M16,30L16,30c-1.633,0-3.265-0.297-4.748-0.841v-0.445c1.483,0.543,3.115,0.891,4.748,0.891V30L16,30z M11.252,2.841
	L11.252,2.841C12.735,2.297,14.367,2,16,2v0.445c-1.633,0-3.265,0.297-4.748,0.841V2.841L11.252,2.841z M16,4.869v0.396
	l-0.544,0.891l-0.99-2.326c-0.345,1.336-1.087,3.117-2.176,3.265l-0.149-0.099c1.485-0.544,1.881-2.622,2.424-4.155l1.09,2.572
	L16,4.869L16,4.869L16,4.869z M16,6.848L16,6.848v0.396c-1.731,0-3.363,0.544-4.748,1.435V8.184C12.637,7.343,14.269,6.848,16,6.848
	L16,6.848z M16,8.084v12.813h-4.748v-0.346h1.682v-8.707h-1.682v-0.396h2.027v9.103h0.594v-0.496h0.396l0.247-0.346v-1.039
	c-0.247-0.148-0.444-0.346-0.543-0.792l-0.198-0.098v-0.297h0.347c0.049,0.346,0.297,0.494,0.494,0.494v-0.742
	c-0.197,0-0.347-0.148-0.494-0.446l-0.05-0.148c-0.099,0-0.198-0.049-0.248-0.149v-0.197h0.495l0.049,0.346h0.248l0.049-0.495
	c-0.246-0.198-0.445-0.446-0.593-0.742c-0.05,0-0.099-0.05-0.149-0.05c0-0.099,0-0.198,0-0.297h0.396v0.248
	c0,0.198,0.445,0.148,0.445,0.148l-0.049-0.544c-0.199-0.049-0.396-0.297-0.545-0.495l-0.197-0.049v-0.297h0.445
	c0,0.099,0.048,0.198,0.197,0.297c0.049,0,0.148,0,0.247,0v-0.495c-0.298-0.148-0.495-0.347-0.544-0.693h-0.197v-0.297h0.443
	c0,0.099,0.051,0.248,0.15,0.347l0.196-0.05v-0.346c-0.247-0.148-0.445-0.346-0.493-0.643l-0.248-0.049v-0.347h0.346
	c0.1,0.445,0.347,0.445,0.496,0.396v-0.396c-0.248-0.099-0.447-0.198-0.496-0.445c-0.197-0.099-0.395-0.445-0.197-0.445h0.197
	c0.148,0,0.199,0.248,0.298,0.396c0.049,0,0.147,0,0.198,0v-0.446c-0.248,0-0.447-0.296-0.496-0.594h-0.148
	c-0.049-0.049-0.049-0.148-0.049-0.247c0.147,0,0.246,0,0.396,0c0.049,0.198,0.196,0.297,0.346,0.347l0.098-0.149
	c0-0.099,0-0.198,0-0.297c-0.098-0.396-0.296-0.692,0.1-0.989L15.109,8.53c-0.098-0.792,0.248-0.544,0.545-0.792
	c0.049-0.1,0.199-0.049,0.247,0.049C15.901,7.937,15.951,8.035,16,8.084L16,8.084L16,8.084z M16,24.756L16,24.756v0.395
	c-1.731,0-3.363-0.494-4.748-1.335v-0.445C12.637,24.212,14.269,24.756,16,24.756L16,24.756z M16,26.141v2.028l-0.049-0.099v-0.445
	c-0.545,0.197-1.138,0.297-1.633,0.049c-0.396-0.247-0.544-0.644,0.049-0.89c0.348-0.198,0.742-0.198,1.188,0.049
	c-0.1,0.049-0.198,0.148-0.248,0.247c-0.544-0.198-0.94-0.05-0.89,0.198c0.048,0.297,0.594,0.297,1.533-0.05l-0.05-0.841
	c-0.94,0-1.83-0.099-2.722-0.346l-0.643,1.78l-0.149-0.445l0.446-1.484c-0.297-0.049-0.594-0.198-0.891-0.296l-0.049,0.248
	c0.246,0.099,0.396,0.346,0.296,0.692c-0.098,0.347-0.445,0.544-0.938,0.594v-0.396c0.346,0.05,0.643,0,0.691-0.247
	c0.05-0.247-0.198-0.445-0.691-0.445v-0.348l0.246,0.051l0.1-0.297c-0.1-0.049-0.198-0.099-0.346-0.198v-0.297
	c0.444,0.248,0.889,0.446,1.335,0.594c-0.148-0.445-0.347-0.742-0.742-0.742v-0.347c0.445,0.099,0.841,0.396,1.138,0.99h0.347
	l0.05,0.346C14.219,25.993,15.109,26.141,16,26.141L16,26.141L16,26.141z M11.252,20.007h0.346l0.444-2.029v2.029h0.445v-2.424
	h-0.692l-0.445,1.929l-0.098-0.346V20.007L11.252,20.007L11.252,20.007z M11.252,15.258h0.493v1.039l0.445,0.346V14.12h0.347
	l-0.149-0.495h-1.136v0.495h0.493v0.644h-0.493V15.258L11.252,15.258L11.252,15.258z M11.252,7.837L11.252,7.837
	c0.197-0.248,0.246-0.594,0.197-0.989h-0.197V7.837L11.252,7.837z M11.252,29.159v-0.445c-0.793-0.297-1.584-0.692-2.326-1.138
	v0.494C9.668,28.516,10.459,28.862,11.252,29.159L11.252,29.159L11.252,29.159z M8.926,3.93v0.495
	c0.742-0.445,1.533-0.841,2.326-1.138V2.841C10.459,3.138,9.668,3.533,8.926,3.93L8.926,3.93L8.926,3.93z M11.252,6.848
	c0.098,0.891-0.249,1.187-0.99,0.791L8.926,6.997V7.59l1.188,0.544c0.445,0.198,0.89,0.05,1.139-0.297V6.848L11.252,6.848
	L11.252,6.848z M11.252,8.184L11.252,8.184c-0.891,0.543-1.683,1.237-2.326,2.028v0.643c0.644-0.841,1.436-1.632,2.326-2.176V8.184
	L11.252,8.184z M11.252,11.449H9.272v9.103v0.346h1.979v-0.346H9.619v-8.707h1.633V11.449L11.252,11.449L11.252,11.449z
	 M11.252,13.625L11.252,13.625h-1.237l0.147,0.495h0.248v0.644c-0.396,0.148-0.446,0.296-0.197,0.692
	c0.098,0.198,0.296,0.346,0.544,0.346c0.147-0.148,0.099-0.296,0.099-0.544h0.396v-0.495h-0.396V14.12h0.396V13.625L11.252,13.625z
	 M11.252,19.167L11.252,19.167l-0.348-1.583h-0.742v2.424h0.496v-2.029l0.443,2.029h0.15V19.167L11.252,19.167z M11.252,23.371
	c-0.891-0.594-1.683-1.335-2.326-2.226v0.643c0.644,0.841,1.436,1.483,2.326,2.028V23.371L11.252,23.371L11.252,23.371z
	 M11.252,24.954c0,0-0.051-0.049-0.1-0.049l-0.149,0.247c0.099,0.05,0.198,0.1,0.249,0.1V24.954L11.252,24.954L11.252,24.954z
	 M11.252,25.695L11.252,25.695h-0.15c-0.296-0.494-0.691-0.791-1.138-0.791c-0.444,0-0.79,0.396-0.296,1.385l0.347-0.149
	c-0.297-0.296-0.445-0.643-0.198-0.84c0.198-0.248,0.494-0.05,0.791,0.395l-0.049,0.1l0.049,0.297
	c0.248-0.049,0.494-0.049,0.645-0.049V25.695L11.252,25.695z M11.252,26.735c-0.1,0-0.249-0.049-0.348-0.099v0.445
	c0.149,0.05,0.248,0.05,0.348,0.05V26.735L11.252,26.735L11.252,26.735z M8.926,22.678v-0.593c0.198,0,0.347,0.099,0.347,0.297
	C9.272,22.53,9.124,22.678,8.926,22.678L8.926,22.678L8.926,22.678z M8.926,28.07L8.926,28.07c-0.05-0.049-0.1-0.099-0.148-0.099
	v-0.495c0.049,0.049,0.099,0.099,0.148,0.099V28.07L8.926,28.07z M8.777,4.028L8.777,4.028c0.049,0,0.099-0.049,0.148-0.099v0.495
	c-0.05,0.049-0.1,0.049-0.148,0.099V4.028L8.777,4.028z M8.926,6.997L8.926,6.997V7.59L8.777,7.492V6.947L8.926,6.997L8.926,6.997z
	 M8.926,10.212L8.926,10.212v0.643c-0.05,0.099-0.1,0.198-0.148,0.248V10.41C8.826,10.361,8.876,10.261,8.926,10.212L8.926,10.212z
	 M8.926,21.145L8.926,21.145v0.643c-0.05-0.05-0.1-0.149-0.148-0.198v-0.692C8.826,20.996,8.876,21.046,8.926,21.145L8.926,21.145z
	 M8.926,22.085L8.926,22.085v0.593c-0.05,0-0.1-0.049-0.148-0.049v-0.495C8.826,22.085,8.876,22.085,8.926,22.085L8.926,22.085z
	 M8.777,23.371L8.777,23.371v-0.297c0.049,0.05,0.099,0.099,0.148,0.149L8.777,23.371L8.777,23.371z M8.777,27.972v-0.495
	c-0.296-0.198-0.594-0.396-0.891-0.594v0.495C8.184,27.576,8.481,27.774,8.777,27.972L8.777,27.972L8.777,27.972z M7.887,4.622
	v0.495c0.297-0.198,0.595-0.396,0.891-0.594V4.028C8.481,4.227,8.184,4.424,7.887,4.622L7.887,4.622L7.887,4.622z M8.777,6.947
	L7.887,6.501v0.594l0.891,0.396V6.947L8.777,6.947L8.777,6.947z M8.777,10.41c-0.346,0.445-0.643,0.891-0.891,1.385v0.94
	c0.248-0.544,0.545-1.088,0.891-1.632V10.41L8.777,10.41L8.777,10.41z M8.777,20.897c-0.346-0.494-0.643-1.039-0.891-1.632v0.94
	c0.248,0.494,0.545,0.94,0.891,1.385V20.897L8.777,20.897L8.777,20.897z M8.777,22.134c-0.099,0.049-0.148,0.099-0.148,0.248
	c0,0.099,0.05,0.198,0.148,0.247V22.134L8.777,22.134L8.777,22.134z M8.777,23.074L8.777,23.074
	c-0.346-0.296-0.643-0.643-0.891-1.038v0.346l0.347,0.445l-0.347,0.247v0.496l0.545-0.446c0.099,0.1,0.197,0.198,0.296,0.297
	l0.05-0.049V23.074L8.777,23.074z M7.887,9.52L7.887,9.52V8.975l0.197,0.099L7.887,8.431V7.59l0.595,2.127L7.887,9.52L7.887,9.52z
	 M7.887,27.378L7.887,27.378c-0.692-0.495-1.336-1.088-1.979-1.683v-0.593c0.595,0.644,1.287,1.236,1.979,1.781V27.378L7.887,27.378
	z M5.907,6.304L5.907,6.304C6.551,5.71,7.194,5.117,7.887,4.622v0.495C7.194,5.661,6.502,6.254,5.907,6.897V6.304L5.907,6.304z
	 M7.887,6.501v0.594L7.738,7.046L7.887,7.59v0.841L7.244,6.205L7.887,6.501L7.887,6.501L7.887,6.501z M7.887,8.975L7.887,8.975V9.52
	l-1.83-0.643c0.742,1.187,1.583,2.918,0.94,3.809l-0.198,0.049c0.495-1.138-0.198-2.474-0.892-3.71V8.283L7.887,8.975L7.887,8.975z
	 M7.887,11.795v0.94C7.492,13.774,7.244,14.862,7.244,16c0,1.138,0.248,2.227,0.643,3.265v0.94C7.244,18.968,6.848,17.533,6.848,16
	S7.244,13.032,7.887,11.795L7.887,11.795L7.887,11.795z M7.887,22.036L7.887,22.036v0.346l-0.346-0.396
	c-0.148,0.643-0.495,0.791-1.088,0.495c0,0.494,0.494,0.742,1.088,0.841l0.346-0.248v0.496l-0.89,0.742l-0.1-0.396l0.347-0.346
	c-1.237-0.346-1.237-0.99-0.94-1.732c0.396,0.544,0.792,0.495,0.94-0.248c-0.247-0.346-0.445-0.742-0.644-1.138l-0.693,0.247v-1.137
	c0.149,0.148,0.198,0.396,0.298,0.643l0.248-0.099c-0.197-0.495-0.396-0.99-0.546-1.484v-1.534c0.1,0.89,0.298,1.731,0.644,2.523
	c0.248-0.297,0.347-0.643,0.148-0.989l0.298-0.149c0.147,0.396,0.099,0.891-0.198,1.485l0.148,0.296l-0.1,0.099
	C7.145,20.947,7.492,21.541,7.887,22.036L7.887,22.036z M5.907,25.695v-0.593c-0.146-0.198-0.295-0.396-0.493-0.594v0.643
	C5.612,25.35,5.761,25.498,5.907,25.695L5.907,25.695L5.907,25.695z M5.414,6.848v0.644c0.198-0.198,0.347-0.396,0.493-0.594V6.304
	C5.761,6.501,5.612,6.699,5.414,6.848L5.414,6.848L5.414,6.848z M5.907,8.283L5.414,8.084c0.148,0.297,0.347,0.643,0.493,0.94V8.283
	L5.907,8.283L5.907,8.283z M5.907,17.088c0-0.346-0.048-0.742-0.048-1.088H5.612c0,0.297,0,0.544,0,0.791l-0.198,0.051v0.395
	l0.296-0.049l0.1,0.692l-0.396,0.05v0.445l0.445-0.099c0,0.148,0.048,0.247,0.048,0.346V17.088L5.907,17.088L5.907,17.088z
	 M5.907,19.562c-0.098-0.198-0.295-0.346-0.493-0.396v0.445c0.198,0.148,0.347,0.544,0.445,1.138l0.048-0.05V19.562L5.907,19.562
	L5.907,19.562z M5.414,20.996v-0.444c0.099,0.049,0.148,0.099,0.198,0.197L5.414,20.996L5.414,20.996L5.414,20.996z M5.414,14.467
	L5.414,14.467v-0.396h0.493L5.71,14.467H5.414L5.414,14.467z M5.414,13.576L5.414,13.576v-0.445h0.493l-0.146,0.445H5.414
	L5.414,13.576z M5.414,25.151L5.414,25.151c-0.396-0.494-0.792-1.039-1.188-1.582v-0.792c0.349,0.594,0.743,1.188,1.188,1.731
	V25.151L5.414,25.151z M4.226,8.431L4.226,8.431c0.396-0.544,0.792-1.088,1.188-1.583v0.644c-0.445,0.543-0.84,1.137-1.188,1.731
	V8.431L4.226,8.431z M5.414,8.084L5.414,8.084v5.046v0.445H4.226v-0.297l0.1-0.148h1.089V8.084L5.414,8.084z M5.414,14.071H4.325
	l-0.1,0.099v0.297h1.188V14.071L5.414,14.071L5.414,14.071z M5.414,16.842L5.414,16.842v0.395H5.018l0.1,0.742l0.297-0.049v0.445
	l-1.188,0.148v-0.347l0.446-0.099l-0.098-0.742c-0.101,0-0.249-0.05-0.349-0.05v-0.444c0.05,0,0.1,0,0.1,0
	c0.148-0.051,0.197-0.199,0.148-0.348c-0.05-0.148-0.148-0.247-0.248-0.247v-0.445c0.349-0.049,0.693,0.198,0.792,1.04H5.414
	L5.414,16.842z M5.414,19.167L5.414,19.167v0.445c-0.05-0.049-0.1-0.049-0.197-0.049c-0.446,0-0.396,0.593-0.15,0.841
	c0.15,0.049,0.248,0.049,0.348,0.148v0.444l-0.05,0.05l-0.445-0.099l-0.445,0.247c-0.05,0.049-0.148,0.099-0.248,0.099v-0.544
	l0.05-0.05l0.198,0.149l0.198-0.198l-0.446-0.247v-0.396l0.349,0.247c-0.101-0.643,0.098-1.038,0.592-1.087
	C5.265,19.167,5.364,19.167,5.414,19.167L5.414,19.167z M4.226,23.569v-0.792c-1.138-1.979-1.78-4.304-1.78-6.777
	c0-2.474,0.643-4.798,1.78-6.777V8.431C2.842,10.607,2,13.23,2,16C2,18.771,2.842,21.392,4.226,23.569L4.226,23.569L4.226,23.569z
	 M4.226,13.279L4.226,13.279l-0.147,0.297h0.147V13.279L4.226,13.279z M4.226,14.169v0.297H4.028L4.226,14.169L4.226,14.169
	L4.226,14.169z M4.226,15.802L4.226,15.802c-0.247,0.049-0.493,0.346-0.493,0.742c0,0.347,0.148,0.594,0.493,0.742v-0.444
	c-0.099,0-0.197-0.1-0.197-0.248c-0.05-0.148,0-0.346,0.148-0.346c0-0.049,0.049-0.049,0.049,0V15.802L4.226,15.802z M4.226,18.176
	L4.226,18.176H4.078c-0.05-0.247-0.149-0.494-0.297-0.742l-0.198,0.099c0.298,0.594,0.05,0.99-0.247,0.693
	c-0.347-0.297-0.099-0.891,0-1.287l-0.149-0.049c-0.247,0.543-0.395,1.039,0,1.632c0.299,0.445,0.595,0.297,0.892,0.049l0.147-0.049
	V18.176L4.226,18.176z M4.226,20.007L4.226,20.007l-0.345-0.198l-0.148,0.247l0.493,0.347V20.007L4.226,20.007z M4.226,20.749
	L4.226,20.749l-0.297,0.247l0.149,0.198c0.049,0.049,0.099,0.099,0.147,0.099V20.749z"/>
</svg>
