<?xml version="1.0" encoding="utf-8"?>
<!-- Generator: Adobe Illustrator 16.0.0, SVG Export Plug-In . SVG Version: 6.00 Build 0)  -->
<!DOCTYPE svg PUBLIC "-//W3C//DTD SVG 1.1//EN" "http://www.w3.org/Graphics/SVG/1.1/DTD/svg11.dtd">
<svg version="1.1" id="Capa_1" xmlns="http://www.w3.org/2000/svg" xmlns:xlink="http://www.w3.org/1999/xlink" x="0px" y="0px"
	 width="64px" height="64px" viewBox="268 137 64 64" enable-background="new 268 137 64 64" xml:space="preserve">
<g>
	<path fill="#FFFFFF" d="M299.547,165.245c-0.575,0.167-0.907,0.768-0.741,1.344c0.029,0.101,2.926,10.404,2.128,33.288
		c-0.021,0.601,0.447,1.103,1.046,1.122C301.994,201,302.007,201,302.02,201c0.581,0,1.063-0.461,1.083-1.047
		c0.81-23.229-2.089-33.54-2.211-33.967C300.726,165.41,300.125,165.083,299.547,165.245z"/>
	<path fill="#FFFFFF" d="M326.824,154.876C322.229,144.018,311.642,137,299.85,137c-3.891,0-7.686,0.76-11.277,2.26
		c-1.989,0.83-3.869,1.817-5.587,2.933c-0.502,0.328-0.646,0.999-0.319,1.501c0.328,0.502,1,0.646,1.501,0.319
		c1.609-1.046,3.372-1.971,5.241-2.751c3.327-1.39,6.839-2.093,10.442-2.093c10.917,0,20.721,6.497,24.974,16.552
		c1.769,4.181,2.725,11.878,3.137,16.096c0.055,0.562,0.526,0.979,1.078,0.979c0.034,0,0.07-0.002,0.107-0.005
		c0.596-0.059,1.031-0.59,0.973-1.186C329.602,166.305,328.61,159.099,326.824,154.876z"/>
	<path fill="#FFFFFF" d="M279.77,147.534c0.427-0.42,0.431-1.107,0.011-1.534c-0.42-0.427-1.106-0.431-1.534-0.011
		c-5.834,5.747-11.645,16.436-6.202,34.709c0.14,0.473,0.571,0.775,1.039,0.775c0.102,0,0.206-0.015,0.309-0.045
		c0.574-0.17,0.901-0.774,0.73-1.349C270.059,166.432,272.011,155.178,279.77,147.534z"/>
	<path fill="#FFFFFF" d="M300.684,143.524c-3.32-0.129-6.55,0.468-9.604,1.742c-10.637,4.438-16.293,16.135-13.155,27.21
		c0.313,1.107,0.635,2.285,0.807,3.459c0.388,2.656,0.409,7.546,0.409,15.301c0,0.6,0.485,1.085,1.085,1.085
		s1.085-0.485,1.085-1.085c0-8.091-0.021-12.805-0.432-15.616c-0.191-1.305-0.532-2.561-0.867-3.736
		c-2.839-10.019,2.278-20.602,11.903-24.617c2.764-1.153,5.705-1.677,8.691-1.577c7.714,0.278,16.457,7.077,19.094,14.85
		c2.282,6.724,2.302,18.18,2.019,28.498c-0.017,0.599,0.457,1.098,1.056,1.114c0.588-0.011,1.098-0.455,1.114-1.056
		c0.287-10.511,0.258-22.206-2.134-29.255C318.808,151.155,309.354,143.834,300.684,143.524z"/>
	<path fill="#FFFFFF" d="M299.85,150.017c-1.179,0-2.353,0.127-3.491,0.378c-0.585,0.129-0.955,0.708-0.826,1.293
		c0.129,0.584,0.701,0.947,1.293,0.825c0.984-0.217,2.001-0.328,3.022-0.328c5.676,0,10.775,3.378,12.987,8.608
		c2.636,6.227,2.809,16.22,2.199,33.659c-0.021,0.599,0.447,1.103,1.046,1.122c0.014,0.001,0.026,0.001,0.039,0.001
		c0.582,0,1.063-0.461,1.083-1.047c0.634-18.141,0.44-27.941-2.37-34.581C312.282,153.916,306.4,150.017,299.85,150.017z"/>
	<path fill="#FFFFFF" d="M291.793,154.722c0.49-0.344,0.61-1.021,0.265-1.511c-0.343-0.491-1.021-0.611-1.511-0.265
		c-5.586,3.923-8.014,11.458-6.037,18.761c0.023,0.079,2.225,8.095,2.225,20.615c0,0.6,0.485,1.084,1.084,1.084
		c0.6,0,1.085-0.484,1.085-1.084c0-12.814-2.211-20.862-2.303-21.191C284.865,164.716,286.952,158.122,291.793,154.722z"/>
	<path fill="#FFFFFF" d="M310.601,189.075c0.004-0.6-0.478-1.088-1.078-1.093c-0.002,0-0.005,0-0.007,0
		c-0.596,0-1.081,0.481-1.085,1.077c-0.006,0.816,0.021,2.008,0.051,3.294c0.042,1.871,0.09,3.992,0.044,5.355
		c-0.022,0.599,0.446,1.101,1.046,1.12c0.014,0.001,0.025,0.001,0.038,0.001c0.582,0,1.063-0.461,1.083-1.048
		c0.05-1.424,0.001-3.578-0.042-5.479C310.621,191.043,310.595,189.875,310.601,189.075z"/>
	<path fill="#FFFFFF" d="M299.85,157.61c-1.152,0-2.276,0.226-3.342,0.67c-4.222,1.762-6.273,6.525-4.773,11.08
		c0.818,2.483,1.509,15.482,1.509,28.386c0,0.6,0.485,1.084,1.085,1.084s1.085-0.484,1.085-1.084
		c0-11.615-0.619-26.029-1.617-29.063c-1.143-3.468,0.383-7.079,3.547-8.399c0.799-0.334,1.642-0.503,2.506-0.503
		c2.62,0,4.972,1.56,5.998,3.981c2.025,4.793,2.627,13.471,2.774,19.909c0.015,0.59,0.497,1.06,1.085,1.06c0.008,0,0.018,0,0.025,0
		c0.599-0.014,1.072-0.511,1.06-1.109c-0.153-6.624-0.787-15.594-2.95-20.711C306.481,159.69,303.344,157.61,299.85,157.61z"/>
</g>
</svg>
