<?xml version="1.0" encoding="utf-8"?>
<!-- Generator: Adobe Illustrator 16.0.0, SVG Export Plug-In . SVG Version: 6.00 Build 0)  -->
<!DOCTYPE svg PUBLIC "-//W3C//DTD SVG 1.1//EN" "http://www.w3.org/Graphics/SVG/1.1/DTD/svg11.dtd">
<svg version="1.1" id="Layer_1" xmlns="http://www.w3.org/2000/svg" xmlns:xlink="http://www.w3.org/1999/xlink" x="0px" y="0px"
	 width="17.35px" height="32px" viewBox="0 0 17.35 32" enable-background="new 0 0 17.35 32" xml:space="preserve">
<path fill="#0089CF" d="M16.962,15.038c-0.07-0.07-0.146-0.129-0.226-0.18L2.267,0.389c-0.518-0.519-1.359-0.519-1.877,0
	c-0.519,0.518-0.519,1.359,0,1.877L14.123,16L0.389,29.733c-0.519,0.519-0.519,1.359,0,1.878s1.359,0.519,1.877,0l14.47-14.47
	c0.08-0.051,0.155-0.109,0.226-0.18c0.266-0.266,0.393-0.614,0.387-0.962C17.355,15.652,17.229,15.304,16.962,15.038z"/>
</svg>
